<svg xmlns="http://www.w3.org/2000/svg" viewBox="0 0 272 41"><g fill="#1d1d1b"><path d="M77.4 26.9h-4.9l-.1-17.8-2.6 2.4c-.5.4-.8.7-1 1-.2.3-.4.5-.5.7v13.7h-1c-.3 0-.6 0-.8.1-.2.1-.4.2-.6.4-.4.3-.9.8-1.6 1.4-.6.6-1.4 1.3-2.2 2.2h6.2v9.2l4.3-3.9v-5.4H76.2c.2 0 .3-.1.5-.1.2-.1.3-.2.5-.3.2-.1.3-.3.5-.5.5-.5 1-1 1.5-1.6.6-.6 1-1.1 1.4-1.5h-3.2zM87.1 25.2l-3.6 3.5c.4.4.8.7 1.3 1 .4.3.8.6 1.2.8.4.2.7.4 1 .6.3.2.5.3.7.3l3.3-3.5c-.3-.2-.8-.4-1.5-.9-.6-.5-1.4-1.1-2.4-1.8z"/><path d="M80.3 20.4L77 17.5l-3.7 3.6 3.3 2.8z"/><path d="M97.4 30.2c-.2-.3-.4-.7-.5-1.3-.1-.6-.2-1.3-.2-2.2v-2.3-3c0-1 .1-2.1.1-3.1v-2.8c0-.6-.2-1.1-.5-1.5-.3-.4-.9-.9-1.6-1.3-.5-.3-1.1-.6-1.6-.7-.5-.2-1.1-.3-1.6-.3-.3 0-.7.1-1 .2-.3.1-.8.4-1.3.7-.3.2-.6.4-.9.7-.3.3-.7.6-1 .9-.4.3-.8.7-1.2 1-.1.1-.2.2-.4.3-.1-1.2-.4-2.3-.8-3.4-.5-1.5-1.4-2.7-2.5-3.8-1.1-1.1-2.5-1.9-4.2-2.5-1.6-.5-3.5-.8-5.8-.8-2 0-3.7.3-5.1.9-1.4.6-2.6 1.4-3.5 2.3-.9 1-1.6 2-2 3.2-.4 1.2-.7 2.3-.7 3.4s.2 2.1.5 3c.3.9.8 1.7 1.3 2.3.6.6 1.3 1.1 2.2 1.5.9.3 1.9.5 3 .4-1.1 0-2.1-.1-3-.4-.8-.4-1.5-.8-2.1-1.4-.5-.6-1-1.2-1.2-1.9-.3-.7-.4-1.5-.4-2.2 0-.9.2-1.8.5-2.6.3-.9.8-1.7 1.5-2.5.7-.7 1.6-1.3 2.8-1.8 1.1-.5 2.5-.7 4.1-.7 1.7 0 3.3.2 4.7.7 1.4.5 2.7 1.1 3.7 2.1s1.8 2.2 2.4 3.6c.6 1.4.9 3.1.9 5.1 0 .8 0 1.6-.1 2.3-.1.7-.2 1.3-.3 1.9-.1.5-.3 1.1-.5 1.5-.2.5-.4.9-.6 1.2.7-.7 1.4-1.5 2-2.2.7-.8 1.2-1.6 1.7-2.4.5-.8.9-1.7 1.1-2.6.3-.9.4-1.8.4-2.8 0-.4 0-.9-.1-1.3.3-.2.6-.5.8-.7.5-.4.9-.6 1.3-.6.3 0 .7 0 1 .1.3 0 .7.2 1.3.4.9.3 1.5.7 1.8 1.2.3.5.5 1 .5 1.6v2.5c0 .9 0 1.8-.1 2.6v5.6c0 .5 0 1 .1 1.3 0 .4.1.6.2.9.1.2.2.4.4.5h5.9c-.2 0-.5-.1-.7-.2-.2-.1-.5-.3-.7-.6zM21 24.5c-.4.7-.9 1.4-1.6 2-.6.5-1.3 1-2.1 1.3-.8.3-1.7.5-2.7.5-3.1 0-5.4-.8-7-2.4C6.1 24.3 5.3 22 5.3 19c0-1.1.1-2.1.2-3 .1-.9.3-1.7.5-2.4s.5-1.4.9-2c.4-.6.8-1.1 1.4-1.7-.9.9-1.8 1.7-2.6 2.6-.8.9-1.5 1.8-2.1 2.8-.6 1-1.1 2.1-1.4 3.2-.3 1.2-.5 2.4-.5 3.8s.2 2.7.6 3.8c.4 1.2 1 2.2 1.8 3 .8.8 1.9 1.5 3.1 2 1.2.5 2.6.7 4.2.7 1.5 0 2.9-.3 4.1-.9 1.2-.6 2.2-1.4 3.1-2.4.9-1 1.6-2 2.1-3.2.5-1.1.9-2.2 1.2-3.3-.2 1-.5 1.8-.9 2.5zM50.7 27.2c-.5.4-.9.6-1.2.7-.3.1-.6.2-1 .2H48c-.2 0-.4-.1-.7-.1-.2-.1-.5-.1-.7-.2-.2-.1-.5-.2-.7-.3-.5-.2-1-.5-1.4-.8-.4-.3-.7-.6-1-.9-.3-.4-.5-.8-.7-1.3-.1-.5-.3-1.2-.3-1.9l9.5-8.3c-.4-.4-.8-.7-1.2-1-.5-.3-.9-.6-1.4-.8-.5-.2-.9-.4-1.4-.6-.5-.1-.9-.2-1.3-.2-.2 0-.5.1-.8.3-.3.2-.7.4-1.1.7l-1.2.9c-.4.4-.8.7-1.1 1.1l-1 1c-.3.3-.5.5-.7.8l-.6.6c-.2.2-.4.5-.6.7-.3.4-.5.7-.7 1-.2.3-.3.6-.5 1-.1.4-.2.8-.2 1.2v1.8c0 1 0 2 .2 2.8.1.8.3 1.5.5 2.1.2.6.5 1.1.9 1.6.4.4.8.8 1.3 1.1.5.3 1.2.6 1.9.8.7.2 1.5.3 2.2.3.5 0 1-.1 1.5-.2s.9-.4 1.3-.6c.3-.2.6-.5 1-.8l1.5-1.5c.6-.6 1.3-1.4 2.2-2.3.9-1 1.9-2.1 3.1-3.4-1.2 1.3-2.2 2.4-3 3.1-1 .4-1.6 1-2.1 1.4zm-8.5-8.4v-2.2c0-.6.1-1.2.2-1.6h.5c.9 0 1.7.2 2.5.7.8.5 1.6 1.1 2.4 1.8l-5.5 5.1c-.1-.5-.1-1.1-.1-1.7v-2.1z"/><path d="M111.9 13.5c-.4-.6-.9-1-1.4-1.3-.5-.3-1.1-.5-1.7-.5-.5 0-1 .1-1.3.2-.4.1-.8.4-1.2.7-.5.4-1.1.9-1.6 1.3s-.9.8-1.2 1.1v-3.3c-.3 0-.7.1-1.2.1s-1 .1-1.6.2c-.5 0-1.1.1-1.7.1h-1.7c.4 0 .6.1.9.2.2.1.4.2.5.5.2.2.3.6.3 1.1.1.5.1 1.1.2 1.8v23.5h4.6c0-.1-.1-.4-.1-.8v-1.8-2.5-3c.8-.3 1.6-.8 2.5-1.4.9-.6 1.7-1.2 2.5-1.9s1.5-1.3 2.1-2c.6-.6 1.1-1.3 1.5-2 .4-.7.7-1.5.8-2.3.2-.9.3-1.8.3-2.9 0-1.1-.1-2.1-.3-2.9-.4-.9-.7-1.6-1.2-2.2zm-3 10.2c-.1.7-.2 1.4-.3 2-.1.6-.2 1.1-.4 1.5-.1.4-.3.8-.4 1-.1 0-.2 0-.3.1h-.3c-.6 0-1.2-.1-1.8-.2-.6-.2-1.2-.3-1.8-.6V15c.2-.2.4-.3.6-.5.2-.1.4-.2.5-.2.5 0 1.1.1 1.6.3.5.2 1 .6 1.4 1.1.4.5.8 1.2 1 2.1.3.9.4 2 .4 3.4-.1 1-.1 1.8-.2 2.5zM224.3 9.2c.3 0 .6 0 .9-.1.3-.1.7-.2 1.1-.5s1-.7 1.7-1.3c.7-.6 1.6-1.4 2.7-2.5-.2.2-.5.4-.7.5-.2.1-.3.2-.5.3-.2.1-.3.1-.5.2h-.5c-.5 0-1.1-.1-1.9-.3-.7-.2-1.7-.5-2.9-.9L220.2 8c1 .5 1.8.8 2.5 1 .6.2 1.2.2 1.6.2zM13.4 11l-2.6 2.4c-.9.8-1.4 1.4-1.7 1.8v11.5l4.4-4-.1-11.7z"/><path d="M36.9 30.2c-.2-.3-.4-.7-.5-1.3-.1-.6-.2-1.3-.2-2.2v-2.3c0-.9.1-1.9.1-2.9s.1-2 .1-2.9v-2.3c0-.6-.1-1.2-.4-1.8-.2-.6-.5-1-1-1.4-.4-.4-.8-.7-1.3-1-.5-.2-1-.4-1.5-.4-.3 0-.6.1-1 .2-.3.1-.7.3-1.1.6-.5.5-1.1 1-1.8 1.5-.6.5-1.2 1.1-1.7 1.5V7.4c-.8.1-1.5.2-2.2.3-.7.1-1.4.1-2.1.2.4-.4.8-.9 1.3-1.4-.3.2-.4.3-.6.5-.2.1-.3.2-.5.3-.2.1-.5.2-.8.2-.3.1-.6.1-1 .1-.5 0-1.1 0-1.8-.1s-1.5-.2-2.3-.4c-.8-.2-1.7-.3-2.5-.5-.9-.2-1.7-.3-2.6-.5-1-.1-1.8-.2-2.5-.3-.7-.1-1.3-.1-1.9-.1-.3 0-.7 0-1.1.2-.4.1-.8.4-1.4.8-.5.3-1.1.9-1.9 1.5-.7.7-1.6 1.6-2.6 2.7.4-.3.7-.6 1-.8s.5-.4.8-.5c.2-.1.5-.2.8-.3.2-.1.5-.1.8-.1.6 0 1.3 0 2 .2.7 0 1.5.1 2.4.3.8.1 1.7.3 2.6.5.9.2 1.7.3 2.5.5.8.1 1.6.3 2.3.4.7.1 1.3.1 1.8.1s1-.1 1.4-.2c.4-.1.8-.4 1.3-.7.4-.3 1-.8 1.5-1.4.2-.3.5-.6.8-.9 0 .3.1.8.1 1.4V24.8c0 1.7 0 3.2-.1 4.7 0 .6-.1 1-.1 1.1-.1.1-.1.2-.2.3h5.7c-.1 0-.2-.1-.4-.1-.1 0-.2-.1-.2-.2s-.1-.3-.1-.5v-.8c0-2-.1-4.1-.1-6.3v-7.4c.4-.3.7-.6 1.1-.8.3-.3.6-.4.8-.4.5 0 1 .1 1.5.3.5.2 1 .6 1.5 1.2.1.2.2.3.3.5.1.2.2.5.2.7 0 .3.1.5.1.8 0 .3.1.5.1.8v2.4c0 .5 0 1-.1 1.6 0 .5 0 1.1-.1 1.5v4c0 .5 0 1 .1 1.3 0 .4.1.6.2.9.1.2.2.4.4.5h5.7c-.2 0-.4-.1-.7-.2-.4 0-.7-.2-.9-.5zM238.4 14c-.5-.8-1.2-1.3-1.9-1.7-.8-.4-1.8-.6-3.1-.6-.8 0-1.4.1-2 .2-.6.2-1.1.4-1.5.7-.5.3-.9.6-1.3 1s-.9.8-1.3 1.2c-.4.5-.9 1-1.4 1.5-.5.5-.9 1-1.3 1.5-.3.5-.6.9-.8 1.4-.2.5-.4.9-.5 1.4l-.3 1.5c-.1.5-.1 1.1-.1 1.8 0 1 .1 1.8.4 2.7.2.8.6 1.6 1.2 2.3.5.8 1.2 1.3 2 1.8.8.4 1.9.6 3.1.6 1 0 1.8-.1 2.5-.4.7-.3 1.3-.7 1.9-1.3.3-.3.6-.6.8-.9.3-.3.6-.7 1.1-1 .2-.2.4-.3.6-.5.2-.2.5-.4.7-.6l.6-.6c.2-.2.4-.4.5-.6.3-.4.6-.9.8-1.3.2-.5.4-.9.5-1.4.1-.5.2-1 .2-1.5s.1-1.1.1-1.8c0-1-.1-1.9-.3-2.7-.3-1.2-.6-2-1.2-2.7zm-3 11.1c-.1.9-.2 1.8-.4 2.6-.4.1-.8.2-1.3.3-.4 0-.8.1-1.2.1-1.1 0-1.9-.2-2.5-.6-.6-.4-1.1-.9-1.5-1.6-.4-.7-.7-1.5-1-2.4-.2-.9-.3-2.1-.3-3.5 0-.9.1-1.8.2-2.6s.3-1.7.5-2.5c.4-.1.8-.2 1.3-.3.5 0 .9-.1 1.2-.1 1.1 0 2 .1 2.7.4.7.3 1.2.8 1.6 1.4.2.3.4.7.5 1.1.1.4.2.8.3 1.3.1.5.1 1 .2 1.6v1.9c-.2 1.1-.2 2-.3 2.9zM135.6 28.5c-.2 0-.4 0-.6-.1l-.6-.3c-.2-.1-.4-.3-.6-.4-.2-.2-.2-.3-.3-.5 0-.2 0-.5-.1-1.1v-2-2.7-3.1V15v-3.3c-.3.1-.7.1-1.2.2s-1 .1-1.5.2c-.6 0-1.1.1-1.7.1h-1.6c.3 0 .6.1.8.2.2.1.4.2.5.4.1.2.2.4.3.7 0 .3.1.6.1 1.1v11c-.8.8-1.4 1.3-1.9 1.7s-.9.6-1.2.7c-.3.1-.6.2-1 .2h-.5c-.2 0-.4-.1-.7-.1-.2-.1-.5-.1-.7-.2-.2-.1-.5-.2-.7-.3-.5-.2-1-.5-1.4-.8-.4-.3-.7-.6-1-.9-.3-.4-.5-.8-.6-1.3-.2-.5-.3-1.2-.4-1.9l9.5-8.3c-.4-.4-.8-.7-1.2-1-.5-.3-.9-.6-1.4-.8-.5-.2-.9-.4-1.4-.6-.5-.1-.9-.2-1.3-.2-.2 0-.5.1-.8.3-.3.2-.7.4-1.1.7l-1.2.9c-.4.4-.8.7-1.1 1.1s-.7.7-.9 1c-.3.3-.5.5-.7.8l-.6.6c-.2.2-.4.5-.6.7-.3.4-.5.7-.7 1-.2.3-.3.6-.5 1-.1.4-.2.8-.2 1.2 0 .5-.1 1.1-.1 1.8 0 1 .1 2 .2 2.8.1.8.3 1.5.5 2.1.2.6.5 1.1.9 1.6.4.4.8.8 1.4 1.1.5.3 1.2.6 1.9.8.7.2 1.4.3 2.1.3.5 0 1-.1 1.5-.2s.9-.4 1.3-.6c.3-.2.6-.5 1-.8l1.5-1.5c.6-.6 1.3-1.4 2.2-2.3l.1-.1v2.8c0 .9.3 1.7 1 2.2.2.1.3.2.5.4l.6.3c.2.1.4.1.5.2.2 0 .3.1.4.1.2 0 .4-.1.7-.2.2-.2.5-.4 1-.7.4-.3.8-.6 1.2-1l1.2-.9c.3-.3.6-.5.7-.6-.2.1-.4.2-.5.2-.7-.4-.9-.4-1-.4zm-17.1-9.7v-2.2c0-.6.1-1.2.2-1.6h.5c.9 0 1.7.2 2.5.7.8.5 1.6 1.1 2.4 1.8l-5.5 5.1c-.1-.5-.1-1.1-.1-1.7v-2.1z"/><path d="M222.2 28.5c-.2 0-.5 0-.7-.1-.2-.1-.5-.2-.7-.3-.2-.1-.4-.3-.5-.4-.2-.2-.2-.3-.3-.5v-1.4-2.7-3.6-4h1.6c.5 0 1 0 1.6.1l4-3.7h-7.1V8.8c0-.2-.1-.2-.2-.2s-.2 0-.3.1c-.1.1-.2.2-.3.2l-3.2 3.1h-5.5V9.8c0-.4-.1-.4-.4-.2l-3.9 3.5v.4h-.5c-.4 0-.8-.1-1.4-.4-.5-.3-1.3-.8-2.2-1.5l-3.4 3.5c.2.2.5.4.8.6.3.2.6.4.9.5.3.2.6.3.9.4.3.1.5.1.8.1.2 0 .4 0 .7-.1.2-.1.6-.3 1-.6s.9-.7 1.5-1.2c.3-.3.6-.6 1-.9l-.4 13.8c0 .5.1.9.2 1.2.2.3.4.7.8 1 .2.2.5.5.8.7.3.2.6.4.9.5.3.2.6.3.8.4.2.1.4.1.5.1.2 0 .4-.1.7-.2.2-.1.5-.4 1-.7.5-.4 1-.8 1.6-1.4.6-.5 1.2-1.2 1.9-1.8l.2-.2v1.3c0 .5.1.9.2 1.2.1.3.4.7.7 1 .2.2.5.3.8.5.3.1.6.3 1.1.4h.2c.2 0 .4-.1.6-.2.2-.1.6-.4 1-.7.4-.3.9-.7 1.3-1s.9-.7 1.2-1c.4-.3.6-.5.8-.6-.2.1-.4.2-.5.2-.3.1-.4.1-.6.1zm-7.5-.6c-.2.2-.4.3-.5.3-.1 0-.2.1-.3.1-.2 0-.5-.1-.8-.2-.3-.1-.6-.3-.9-.5-.3-.2-.6-.3-.8-.5-.2-.2-.4-.3-.5-.4 0-.1-.1-.1-.1-.3 0-.1-.1-.3-.1-.7 0-.3 0-.7-.1-1.2v-2-3-4.2h4.9v11.8c-.4.4-.7.6-.8.8zM271.1 16.4c-.2-.9-.6-1.7-1.1-2.4-.5-.8-1.2-1.3-1.9-1.7-.8-.4-1.8-.6-3.1-.6-.8 0-1.4.1-2 .2-.6.2-1.1.4-1.5.7-.5.3-.9.6-1.3 1s-.9.8-1.3 1.2c-.4.5-.9 1-1.4 1.5-.5.5-.9 1-1.3 1.5-.3.5-.6.9-.8 1.4-.2.5-.4.9-.5 1.4l-.3 1.5c-.1.5-.1 1.1-.1 1.8 0 1 .1 1.8.3 2.7.2.8.6 1.6 1.2 2.3.5.8 1.2 1.3 2 1.8.8.4 1.9.6 3.1.6 1 0 1.8-.1 2.5-.4.7-.3 1.3-.7 1.9-1.3.3-.3.6-.6.8-.9.3-.3.6-.7 1.1-1 .2-.2.4-.3.6-.5.2-.2.5-.4.7-.6l.6-.6c.2-.2.4-.4.5-.6.3-.4.6-.9.8-1.3.2-.5.4-.9.5-1.4.1-.5.2-1 .2-1.5s.1-1.1.1-1.8c0-1.2-.1-2.1-.3-3zm-4.2 8.7c-.1.9-.2 1.8-.4 2.6-.4.1-.8.2-1.3.3-.4 0-.8.1-1.2.1-1.1 0-1.9-.2-2.5-.6-.6-.4-1.1-.9-1.5-1.6-.4-.7-.7-1.5-1-2.4-.2-.9-.3-2.1-.3-3.5 0-.9.1-1.8.2-2.6s.3-1.7.5-2.5c.4-.1.8-.2 1.3-.3.5 0 .9-.1 1.2-.1 1.1 0 2 .1 2.7.4.7.3 1.2.8 1.6 1.4.2.3.4.7.5 1.1.1.4.2.8.3 1.3.1.5.1 1 .2 1.6v1.9c-.1 1.1-.2 2-.3 2.9z"/><path d="M200.6 28.5c-.2 0-.4 0-.6-.1-.2-.1-.4-.2-.7-.3-.2-.1-.4-.3-.6-.4-.1-.2-.2-.3-.3-.5v-1.1-2-2.7-3.1V15v-3.3c-.3.1-.7.1-1.2.2s-1 .1-1.5.2c-.5 0-1.1.1-1.7.1h-1.7c.3 0 .6.1.8.2.2.1.4.2.5.4.1.2.2.4.3.7 0 .3.1.6.1 1.1v14c0 .9.3 1.7 1 2.2.2.1.3.2.5.4l.6.3c.2.1.4.1.5.2.2 0 .3.1.4.1.2 0 .4-.1.7-.2.2-.2.5-.4.9-.7.4-.3.8-.6 1.2-1l1.2-.9c.3-.3.6-.5.7-.6-.2.1-.4.2-.5.2-.3-.1-.4-.1-.6-.1zM253.1 30.6c0-.1-.1-.3-.1-.5v-.8c0-1.7-.1-3.4-.1-5.2v-4.9-4.3-3.3c-.3 0-.6.1-1 .2-.4 0-.8.1-1.3.1.1-1.2.2-2.3.3-3.3s.3-2 .5-3c.2-.9.4-1.8.5-2.7.2-.9.4-1.7.6-2.5-.1.3-.2.7-.3 1-.1.4-.2.8-.4 1.3-.1.5-.3 1-.4 1.5l-.3 1.5c-.3-.1-.7-.2-1-.2-.4-.1-.7-.1-1.1-.1-.4 0-.6.2-.6.6 0 .2.1.5.3.9.2.3.4.7.7 1.2.3.5.5 1 .8 1.6.2.6.4 1.3.4 2.1-.6 0-1.2.1-1.8.1h-1.5c.2 0 .4.1.5.2.2.1.3.2.3.3.1.2.1.4.2.7 0 .3.1.6.1 1.1V24.8c0 1.5 0 3.1-.1 4.6 0 .6-.1 1-.2 1.1-.1.1-.1.2-.2.3h5.9c-.1 0-.2-.1-.4-.1-.2.1-.3 0-.3-.1zM246.1 30.6c-.1-.1-.1-.3-.1-.5s-.1-.5-.1-.8c0-1.7-.1-3.5-.1-5.3 0-1.9 0-3.7-.1-5.6v-5.6-5.4c-.7.1-1.7.2-3.1.4-1.2.2-3 .2-5.1.2.8 0 1.5.1 2 .2s.9.2 1.1.5c.3.2.4.6.5 1.1.1.5.1 1.1.2 1.8v13.2c0 1.7 0 3.3-.1 4.8 0 .6-.1 1-.1 1.1-.1.1-.1.2-.2.3h5.9c-.1 0-.2-.1-.3-.1-.2-.1-.3-.2-.4-.3zM166.2 26.9h-4.9l-.1-17.8-2.6 2.4c-.5.4-.8.7-1.1 1-.2.3-.4.5-.5.7v13.7h-1c-.3 0-.6 0-.8.1-.2.1-.4.2-.6.4-.4.3-.9.8-1.6 1.4-.6.6-1.4 1.3-2.2 2.2h6.1v9.2l4.3-3.9v-5.4h3.5c.2 0 .4-.1.5-.1.2-.1.3-.2.5-.3.2-.1.3-.3.5-.5.5-.5 1-1 1.5-1.6.5-.6 1-1.1 1.4-1.5h-2.9zM142.4 13.3c-.1.1-.3.1-.4.2H140.8c-.2 0-.5-.1-.9-.2-.3-.1-.7-.3-1.2-.5s-1-.6-1.7-1l-3.3 3.4c1 .6 1.7 1.1 2.3 1.4.6.3 1.1.4 1.6.4.2 0 .5 0 .8-.2.3-.1.6-.3 1-.6s1-.8 1.6-1.4c.7-.6 1.5-1.4 2.5-2.4-.2.2-.5.5-.7.6-.1.1-.2.2-.4.3zM190.7 14c-.5-.8-1.2-1.3-2-1.7-.8-.4-1.8-.6-3-.6-.8 0-1.4.1-2 .2-.6.2-1.1.4-1.5.7-.5.3-.9.6-1.3 1s-.8.8-1.3 1.2-.9 1-1.5 1.5c-.5.5-.9 1-1.3 1.5-.3.5-.6.9-.8 1.4-.2.5-.4.9-.5 1.4l-.3 1.5c0 .5-.1 1.1-.1 1.8 0 1 .1 1.8.3 2.7.2.8.6 1.6 1.2 2.3.5.8 1.2 1.3 2 1.8.8.4 1.9.6 3.1.6 1 0 1.8-.1 2.5-.4.7-.3 1.3-.7 1.9-1.3.3-.3.5-.6.8-.9.3-.3.6-.7 1.1-1 .2-.2.4-.3.6-.5.2-.2.5-.4.7-.6.2-.2.5-.4.7-.6.2-.2.4-.4.5-.6.3-.4.6-.9.8-1.3.2-.5.4-.9.5-1.4.1-.5.2-1 .2-1.5s.1-1.1.1-1.8c0-1-.1-1.9-.3-2.7-.2-1.2-.6-2-1.1-2.7zm-3.1 11.1c-.1.9-.2 1.8-.4 2.6-.4.1-.9.2-1.3.3-.4 0-.8.1-1.2.1-1.1 0-1.9-.2-2.5-.6-.6-.4-1.1-.9-1.5-1.6-.4-.7-.7-1.5-1-2.4-.2-.9-.3-2.1-.3-3.5 0-.9.1-1.8.2-2.6s.3-1.7.5-2.5c.4-.1.8-.2 1.3-.3.5 0 .8-.1 1.2-.1 1.1 0 2 .1 2.6.4.7.3 1.2.8 1.6 1.4.2.3.4.7.5 1.1.1.4.2.8.3 1.3.1.5.1 1 .2 1.6v1.9c0 1.1-.1 2-.2 2.9z"/><path d="M169.1 20.4l-3.3-2.9-3.7 3.6 3.3 2.8z"/><path d="M171.3 8.4c-1.1-1.1-2.5-1.9-4.2-2.5-1.7-.6-3.6-.9-5.9-.9-2 0-3.7.3-5.1.9-1.4.6-2.6 1.4-3.5 2.3-.9 1-1.6 2-2.1 3.2-.4 1.2-.6 2.3-.6 3.4s.1 2.1.5 3c.3.9.8 1.7 1.3 2.3.6.6 1.3 1.1 2.2 1.5.9.3 1.9.5 3.1.4-1.1 0-2.1-.1-3-.4-.8-.4-1.5-.8-2.1-1.4-.5-.6-1-1.2-1.2-1.9-.3-.7-.4-1.5-.4-2.2 0-.9.2-1.8.5-2.6.3-.9.8-1.7 1.5-2.5.7-.7 1.6-1.3 2.8-1.8 1.1-.5 2.5-.7 4.2-.7 1.7 0 3.3.2 4.7.7 1.4.5 2.7 1.1 3.7 2.1s1.8 2.2 2.4 3.6c.6 1.4.9 3.1.9 5.1 0 .8 0 1.6-.1 2.3-.1.7-.2 1.3-.4 1.9-.1.5-.3 1.1-.5 1.5-.2.5-.4.9-.6 1.2.7-.7 1.4-1.5 2-2.2.6-.8 1.2-1.6 1.7-2.4.5-.8.9-1.7 1.2-2.6s.4-1.8.4-2.8c0-1.7-.3-3.3-.8-4.7-.7-1.5-1.5-2.7-2.6-3.8z"/></g></svg>